<svg width="13" height="25" viewBox="0 0 13 25" fill="none" xmlns="http://www.w3.org/2000/svg">
<path d="M0.991397 2.67879L9.92521 11.756C10.1211 11.954 10.231 12.2214 10.231 12.5C10.231 12.7786 10.1211 13.0459 9.92521 13.244L0.993335 22.3212C0.797501 22.5205 0.687768 22.7887 0.687768 23.0681C0.687768 23.3475 0.797501 23.6157 0.993335 23.815C1.089 23.9131 1.20335 23.9911 1.32963 24.0443C1.45591 24.0976 1.59157 24.125 1.72862 24.125C1.86567 24.125 2.00133 24.0976 2.12761 24.0443C2.25389 23.9911 2.36823 23.9131 2.4639 23.815L11.3958 14.7397C11.9827 14.142 12.3115 13.3377 12.3115 12.5C12.3115 11.6622 11.9827 10.858 11.3958 10.2602L2.4639 1.18498C2.3682 1.08655 2.25374 1.00831 2.12728 0.954885C2.00082 0.901459 1.86493 0.873932 1.72765 0.873932C1.59037 0.873932 1.45448 0.901459 1.32802 0.954885C1.20156 1.00831 1.0871 1.08655 0.991397 1.18498C0.795563 1.38426 0.68583 1.65249 0.68583 1.93189C0.68583 2.21129 0.795563 2.47951 0.991397 2.67879Z" fill="black"/>
</svg>
