<svg width="44" height="44" viewBox="0 0 44 44" fill="none" xmlns="http://www.w3.org/2000/svg">
<path d="M21.9999 2.75C23.4586 2.75 24.8576 3.32946 25.889 4.36091C26.9205 5.39236 27.4999 6.79131 27.4999 8.25V13.75H16.4999V8.25C16.4999 6.79131 17.0794 5.39236 18.1109 4.36091C19.1423 3.32946 20.5413 2.75 21.9999 2.75ZM30.2499 13.75V8.25C30.2499 6.06196 29.3808 3.96354 27.8336 2.41637C26.2864 0.869194 24.188 0 21.9999 0C19.8119 0 17.7135 0.869194 16.1663 2.41637C14.6191 3.96354 13.7499 6.06196 13.7499 8.25V13.75H9.23995C8.25235 13.7502 7.29761 14.1048 6.54923 14.7492C5.80086 15.3936 5.30852 16.2851 5.1617 17.2617L2.33745 36.1075C2.19111 37.0854 2.25742 38.0833 2.53184 39.0332C2.80627 39.9831 3.28235 40.8626 3.92762 41.6117C4.57289 42.3609 5.37216 42.9621 6.2709 43.3742C7.16964 43.7864 8.14671 43.9998 9.13545 44H34.8617C35.8507 44.0002 36.828 43.787 37.7271 43.3751C38.6262 42.9631 39.4258 42.362 40.0714 41.6128C40.7169 40.8636 41.1933 39.9839 41.4679 39.0338C41.7424 38.0837 41.8088 37.0856 41.6624 36.1075L38.8354 17.2617C38.6887 16.2856 38.1968 15.3944 37.449 14.7501C36.7012 14.1057 35.7471 13.7509 34.7599 13.75H30.2499ZM27.4999 16.5V20.625C27.4999 20.9897 27.6448 21.3394 27.9027 21.5973C28.1605 21.8551 28.5103 22 28.8749 22C29.2396 22 29.5894 21.8551 29.8472 21.5973C30.1051 21.3394 30.2499 20.9897 30.2499 20.625V16.5H34.7572C35.0864 16.5003 35.4045 16.6187 35.6538 16.8337C35.9031 17.0487 36.067 17.3459 36.1157 17.6715L38.9427 36.5117C39.0309 37.0986 38.9915 37.6976 38.8271 38.2679C38.6626 38.8381 38.3771 39.3661 37.99 39.8159C37.6028 40.2657 37.1232 40.6267 36.5838 40.8742C36.0444 41.1217 35.4579 41.2499 34.8644 41.25H9.13545C8.54198 41.2499 7.95553 41.1217 7.41613 40.8742C6.87673 40.6267 6.39708 40.2657 6.00994 39.8159C5.62279 39.3661 5.33726 38.8381 5.17284 38.2679C5.00841 37.6976 4.96897 37.0986 5.0572 36.5117L7.8842 17.6715C7.93284 17.3464 8.09634 17.0495 8.34505 16.8346C8.59377 16.6197 8.91124 16.501 9.23995 16.5H13.7499V20.625C13.7499 20.9897 13.8948 21.3394 14.1527 21.5973C14.4105 21.8551 14.7603 22 15.1249 22C15.4896 22 15.8394 21.8551 16.0972 21.5973C16.3551 21.3394 16.4999 20.9897 16.4999 20.625V16.5H27.4999Z" fill="black"/>
</svg>
