<svg width="43" height="43" viewBox="0 0 43 43" fill="none" xmlns="http://www.w3.org/2000/svg">
<path d="M22.9692 9.99747L21.5 11.4702L20.0237 9.99389C18.2175 8.18797 15.7679 7.17351 13.2138 7.17368C10.6597 7.17384 8.21024 8.18863 6.40432 9.99478C4.5984 11.8009 3.58394 14.2505 3.58411 16.8046C3.58427 19.3588 4.59906 21.8082 6.40522 23.6141L20.5504 37.7593C20.8024 38.011 21.1439 38.1523 21.5 38.1523C21.8561 38.1523 22.1976 38.011 22.4496 37.7593L36.6073 23.6106C38.4114 21.8042 39.4245 19.3556 39.4242 16.8027C39.4238 14.2499 38.41 11.8015 36.6055 9.99568C35.7104 9.09992 34.6475 8.38933 33.4776 7.90452C32.3077 7.4197 31.0537 7.17017 29.7874 7.17017C28.521 7.17017 27.267 7.4197 26.0971 7.90452C24.9272 8.38933 23.8643 9.10171 22.9692 9.99747ZM34.701 21.7132L21.5 34.9106L8.30438 21.715C7.65406 21.0715 7.13732 20.3059 6.78386 19.4621C6.43039 18.6183 6.24718 17.713 6.24475 16.7982C6.24231 15.8833 6.42071 14.977 6.76968 14.1314C7.11864 13.2857 7.63131 12.5173 8.27819 11.8705C8.92508 11.2236 9.69344 10.7109 10.5391 10.3619C11.3848 10.013 12.2911 9.83457 13.2059 9.837C14.1207 9.83944 15.0261 10.0227 15.8699 10.3761C16.7137 10.7296 17.4793 11.2463 18.1227 11.8966L20.5558 14.3279C20.6824 14.4547 20.833 14.5548 20.9989 14.6225C21.1647 14.6902 21.3424 14.724 21.5216 14.722C21.7007 14.72 21.8776 14.6822 22.0419 14.6108C22.2062 14.5395 22.3545 14.436 22.4783 14.3064L24.8683 11.8966C26.1858 10.6704 27.9275 10.0029 29.727 10.0345C31.5265 10.0662 33.2436 10.7946 34.5171 12.0664C35.7906 13.3383 36.5212 15.0545 36.5551 16.8539C36.5891 18.6534 35.9238 20.396 34.6992 21.715" fill="black"/>
</svg>
