<svg width="59" height="56" viewBox="0 0 59 56" fill="none" xmlns="http://www.w3.org/2000/svg">
<ellipse cx="29.0141" cy="27.8378" rx="29.0141" ry="27.8378" fill="white"/>
<path d="M40.625 40.625L31.875 31.875M14.375 24.5833C14.375 25.9239 14.639 27.2514 15.1521 28.4899C15.6651 29.7284 16.417 30.8538 17.365 31.8017C18.3129 32.7496 19.4382 33.5016 20.6768 34.0146C21.9153 34.5276 23.2428 34.7917 24.5833 34.7917C25.9239 34.7917 27.2514 34.5276 28.4899 34.0146C29.7284 33.5016 30.8538 32.7496 31.8017 31.8017C32.7496 30.8538 33.5016 29.7284 34.0146 28.4899C34.5276 27.2514 34.7917 25.9239 34.7917 24.5833C34.7917 23.2428 34.5276 21.9153 34.0146 20.6768C33.5016 19.4382 32.7496 18.3129 31.8017 17.365C30.8538 16.417 29.7284 15.6651 28.4899 15.1521C27.2514 14.639 25.9239 14.375 24.5833 14.375C23.2428 14.375 21.9153 14.639 20.6768 15.1521C19.4382 15.6651 18.3129 16.417 17.365 17.365C16.417 18.3129 15.6651 19.4382 15.1521 20.6768C14.639 21.9153 14.375 23.2428 14.375 24.5833Z" stroke="black" stroke-width="2.91667" stroke-linecap="round" stroke-linejoin="round"/>
</svg>
